<svg width="1000" height="167" viewBox="0 0 1000 167" fill="none" xmlns="http://www.w3.org/2000/svg">
<g clip-path="url(#clip0_8455_33393)">
<path d="M106.383 0H198.165C204.006 0 208.595 4.801 208.595 10.438V31.312C208.595 37.157 204.006 41.75 198.165 41.75H106.383C80.309 41.75 65.708 60.538 62.787 80.369C60.701 94.981 54.235 104.375 41.719 104.375H10.43C4.59 104.375 0 99.782 0 93.937V73.064C0 67.427 4.59 62.626 10.43 62.626H39.633C56.321 62.626 60.701 53.232 62.996 38.829C66.125 18.578 78.223 0 106.383 0Z" fill="white"/>
<path d="M198.165 62.625H116.813C96.371 62.625 85.941 76.611 83.438 93.938C80.935 111.264 70.505 125.25 47.977 125.25H10.43C4.59 125.25 0 130.051 0 135.687V156.562C0 162.407 4.59 167 10.43 167H50.063C70.505 167 80.726 153.014 83.438 135.687C86.15 117.735 96.371 104.375 116.813 104.375H198.165C204.006 104.375 208.595 99.782 208.595 93.937V73.064C208.595 67.427 204.006 62.625 198.165 62.625Z" fill="white"/>
<path d="M114.727 125.25H198.165C204.006 125.25 208.595 130.051 208.595 135.687V156.562C208.595 162.407 204.006 167 198.165 167H114.727C108.887 167 104.297 162.407 104.297 156.562V135.687C104.297 130.051 108.887 125.25 114.727 125.25Z" fill="white"/>
<path d="M271.173 12.8792V154.388C271.172 155.151 271.322 155.907 271.614 156.612C271.906 157.318 272.333 157.958 272.873 158.498C273.412 159.038 274.053 159.466 274.758 159.759C275.463 160.051 276.219 160.201 276.982 160.201H435.507C436.01 160.206 436.51 160.11 436.976 159.919C437.442 159.729 437.865 159.447 438.221 159.091C438.577 158.735 438.858 158.311 439.048 157.845C439.239 157.379 439.334 156.88 439.329 156.376V133.429C439.334 132.926 439.239 132.426 439.048 131.96C438.858 131.494 438.577 131.07 438.221 130.714C437.865 130.358 437.442 130.076 436.976 129.886C436.51 129.695 436.01 129.599 435.507 129.604H305.569V97.9372H416.398C416.901 97.9418 417.401 97.8461 417.866 97.6556C418.332 97.465 418.756 97.1835 419.112 96.8274C419.467 96.4714 419.749 96.048 419.939 95.5819C420.129 95.1159 420.225 94.6165 420.22 94.1132V71.4722C420.225 70.9687 420.13 70.4692 419.94 70.003C419.749 69.5367 419.468 69.1131 419.112 68.7569C418.756 68.4008 418.333 68.1191 417.867 67.9286C417.401 67.738 416.901 67.6424 416.398 67.6472H305.569V37.8152H435.507C436.01 37.8198 436.509 37.7241 436.975 37.5336C437.441 37.343 437.865 37.0615 438.221 36.7054C438.576 36.3494 438.858 35.926 439.048 35.4599C439.238 34.9939 439.334 34.4945 439.329 33.9912V11.0432C439.334 10.5398 439.239 10.0404 439.048 9.57427C438.858 9.10816 438.577 8.68467 438.221 8.32859C437.865 7.97251 437.442 7.69098 436.976 7.50049C436.51 7.30999 436.01 7.21435 435.507 7.21917H276.982C273.772 7.21917 271.173 9.66617 271.173 12.8792Z" fill="white"/>
<path d="M528.604 160.201H555.356C555.859 160.206 556.359 160.11 556.825 159.919C557.291 159.729 557.714 159.447 558.07 159.091C558.426 158.735 558.707 158.311 558.897 157.845C559.088 157.379 559.183 156.88 559.178 156.376C559.178 80.8031 558.719 53.8781 558.566 37.3561C583.636 37.3561 599.229 37.6621 619.255 37.8161C619.758 37.8208 620.258 37.725 620.723 37.5344C621.189 37.3437 621.613 37.0621 621.968 36.7059C622.324 36.3498 622.606 35.9262 622.796 35.46C622.986 34.9939 623.081 34.4945 623.076 33.9911V11.0431C623.081 10.5397 622.986 10.0403 622.796 9.57424C622.605 9.10814 622.324 8.68464 621.968 8.32855C621.613 7.97245 621.189 7.69091 620.723 7.50041C620.257 7.3099 619.758 7.21425 619.255 7.21907C587.458 7.37207 567.28 7.67807 541.903 7.67807C516.222 7.67807 496.196 7.21807 464.552 7.21807C464.048 7.21325 463.549 7.30892 463.083 7.49948C462.617 7.69004 462.193 7.97165 461.837 8.32784C461.482 8.68403 461.2 9.10763 461.01 9.57386C460.82 10.0401 460.725 10.5396 460.73 11.0431V33.9911C460.725 34.4944 460.82 34.9938 461.011 35.4598C461.201 35.9259 461.482 36.3493 461.838 36.7053C462.194 37.0614 462.617 37.3429 463.083 37.5335C463.549 37.724 464.048 37.8197 464.552 37.8151C484.578 37.6621 500.476 37.3561 525.394 37.3561C525.241 53.8781 524.782 80.8031 524.782 156.376C524.777 156.88 524.872 157.379 525.062 157.845C525.253 158.311 525.534 158.735 525.89 159.091C526.246 159.447 526.669 159.729 527.135 159.919C527.601 160.11 528.1 160.206 528.604 160.201Z" fill="white"/>
<path d="M631.332 83.7101C631.332 129.758 668.02 162.344 722.441 162.344C756.684 162.344 783.892 150.717 799.946 131.135C801.17 129.452 800.861 127.158 799.027 126.087L777.931 112.472C776.253 111.4 773.804 111.859 772.275 113.543C759.282 126.24 742.773 132.665 722.441 132.665C688.352 132.665 664.504 112.625 664.504 83.7111C664.504 54.7971 687.129 34.7571 719.384 34.7571C741.703 34.7571 759.282 41.1821 772.735 54.3381C773.959 55.7151 776.557 55.8681 778.391 54.6441L799.027 41.4881C800.711 40.2641 801.17 38.1221 799.791 36.2861C783.588 16.8581 755.002 5.07812 719.384 5.07812C669.702 5.07812 631.332 39.6511 631.332 83.7101Z" fill="white"/>
<path d="M829.91 160.201H856.662C858.8 160.201 860.479 158.518 860.479 156.376V98.5492H965.501V156.376C965.496 156.88 965.591 157.379 965.782 157.845C965.972 158.311 966.253 158.735 966.609 159.091C966.965 159.447 967.388 159.729 967.854 159.919C968.32 160.11 968.819 160.206 969.323 160.201H996.075C998.218 160.201 999.897 158.518 999.897 156.376V11.0432C999.897 8.90116 998.218 7.21916 996.075 7.21916H969.323C968.819 7.21448 968.32 7.31021 967.854 7.50076C967.388 7.6913 966.965 7.97283 966.609 8.32888C966.253 8.68494 965.972 9.10837 965.782 9.57442C965.591 10.0405 965.496 10.5398 965.501 11.0432V67.9532H860.479V11.0432C860.479 8.90116 858.8 7.21916 856.662 7.21916H829.91C827.767 7.21916 826.088 8.90116 826.088 11.0432V156.376C826.088 158.518 827.767 160.201 829.91 160.201Z" fill="white"/>
</g>
<defs>
<clipPath id="clip0_8455_33393">
<rect width="1000" height="167" fill="white"/>
</clipPath>
</defs>
</svg>
