<svg xmlns="http://www.w3.org/2000/svg" viewBox="0 0 1000 167">
    <g class="etch-symbol" fill="currentColor">
        <path class="etch-symbol__top" d="M106.383 0h91.782c5.841 0 10.43 4.801 10.43 10.438v20.874c0 5.845-4.589 10.438-10.43 10.438h-91.782c-26.074 0-40.675 18.788-43.596 38.619-2.086 14.612-8.552 24.006-21.068 24.006H10.43C4.59 104.375 0 99.782 0 93.937V73.064c0-5.637 4.59-10.438 10.43-10.438h29.203c16.688 0 21.068-9.394 23.363-23.797C66.125 18.578 78.223 0 106.383 0Z"/>
        <path class="etch-symbol__middle" d="M198.165 62.625h-81.352c-20.442 0-30.872 13.986-33.375 31.313-2.503 17.326-12.933 31.312-35.461 31.312H10.43C4.59 125.25 0 130.051 0 135.687v20.875C0 162.407 4.59 167 10.43 167h39.633c20.442 0 30.663-13.986 33.375-31.313 2.712-17.952 12.933-31.312 33.375-31.312h81.352c5.841 0 10.43-4.593 10.43-10.438V73.064c0-5.637-4.589-10.438-10.43-10.438Z"/>
        <path class="etch-symbol__bottom" d="M114.727 125.25h83.438c5.841 0 10.43 4.801 10.43 10.437v20.875c0 5.845-4.589 10.438-10.43 10.438h-83.438c-5.84 0-10.43-4.593-10.43-10.438v-20.875c0-5.636 4.59-10.437 10.43-10.437Z"/>
    </g>
    <g class="etch-wordmark" fill="currentColor">
        <path class="etch-wordmark__e" d="M271.173 12.879v141.509a5.809 5.809 0 0 0 5.809 5.813h158.525a3.787 3.787 0 0 0 3.822-3.825v-22.947a3.787 3.787 0 0 0-3.822-3.825H305.569V97.937h110.829a3.787 3.787 0 0 0 3.822-3.824V71.472a3.786 3.786 0 0 0-3.822-3.825H305.569V37.815h129.938a3.787 3.787 0 0 0 3.822-3.824V11.043a3.786 3.786 0 0 0-3.822-3.824H276.982c-3.21 0-5.809 2.447-5.809 5.66Z"/>
        <path class="etch-wordmark__t" d="M528.604 160.201h26.752a3.787 3.787 0 0 0 3.822-3.825c0-75.573-.459-102.498-.612-119.02 25.07 0 40.663.306 60.689.46a3.786 3.786 0 0 0 3.821-3.825V11.043a3.785 3.785 0 0 0-3.821-3.824c-31.797.153-51.975.459-77.352.459-25.681 0-45.707-.46-77.351-.46a3.786 3.786 0 0 0-3.822 3.825v22.948a3.787 3.787 0 0 0 3.822 3.824c20.026-.153 35.924-.459 60.842-.459-.153 16.522-.612 43.447-.612 119.02a3.787 3.787 0 0 0 3.822 3.825Z"/>
        <path class="etch-wordmark__c" d="M631.332 83.71c0 46.048 36.688 78.634 91.109 78.634 34.243 0 61.451-11.627 77.505-31.209 1.224-1.683.915-3.977-.919-5.048l-21.096-13.615c-1.678-1.072-4.127-.613-5.656 1.071-12.993 12.697-29.502 19.122-49.834 19.122-34.089 0-57.937-20.04-57.937-48.954s22.625-48.954 54.88-48.954c22.319 0 39.898 6.425 53.351 19.581 1.224 1.377 3.822 1.53 5.656.306l20.636-13.156c1.684-1.224 2.143-3.366.764-5.202-16.203-19.428-44.789-31.208-80.407-31.208-49.682 0-88.052 34.574-88.052 78.633Z"/>
        <path class="etch-wordmark__h" d="M829.91 160.201h26.752c2.138 0 3.817-1.683 3.817-3.825V98.549h105.022v57.827a3.788 3.788 0 0 0 3.822 3.825h26.752c2.143 0 3.822-1.683 3.822-3.825V11.043c0-2.142-1.679-3.824-3.822-3.824h-26.752a3.787 3.787 0 0 0-3.822 3.824v56.91H860.479v-56.91c0-2.142-1.679-3.824-3.817-3.824H829.91c-2.143 0-3.822 1.682-3.822 3.824v145.333c0 2.142 1.679 3.825 3.822 3.825Z"/>
    </g>
</svg>
