<svg xmlns="http://www.w3.org/2000/svg" fill="none" viewBox="0 0 180 180" id="etch-docs-favicon">
    <rect fill="#ffffff33" width="180" height="180" rx="30"/>
    <g fill="currentColor" style="transform: scale(90%); transform-origin: 45% 50%;color: #18181b;">
        <path d="M91.6 26H162c4.48 0 8 3.68 8 8v16c0 4.48-3.52 8-8 8H91.6c-20 0-31.2 14.4-33.44 29.6C56.56 98.8 51.6 106 42 106H18c-4.48 0-8-3.52-8-8V82c0-4.32 3.52-8 8-8h22.4c12.8 0 16.16-7.2 17.92-18.24C60.72 40.24 70 26 91.6 26"/>
        <path d="M162 73.998H99.6c-15.68 0-23.68 10.72-25.6 24s-9.92 24-27.2 24H18c-4.48 0-8 3.68-8 8v16c0 4.48 3.52 8 8 8h30.4c15.68 0 23.52-10.72 25.6-24 2.08-13.76 9.92-24 25.6-24H162c4.48 0 8-3.52 8-8v-16c0-4.32-3.52-8-8-8"/>
        <path d="M98 121.996h64c4.48 0 8 3.68 8 8v16c0 4.48-3.52 8-8 8H98c-4.48 0-8-3.52-8-8v-16c0-4.32 3.52-8 8-8"/>
    </g>
</svg>
