<svg xmlns="http://www.w3.org/2000/svg" fill="none" viewBox="0 0 16 16">
    <g fill="#000000">
        <path d="M8.16 1.6h7.04c.448 0 .8.368.8.8V4c0 .448-.352.8-.8.8H8.16c-2 0-3.12 1.44-3.344 2.96C4.656 8.88 4.16 9.6 3.2 9.6H.8a.79.79 0 0 1-.8-.8V7.2c0-.432.352-.8.8-.8h2.24c1.28 0 1.616-.72 1.792-1.824C5.072 3.024 6 1.6 8.16 1.6"/>
        <path d="M15.2 6.4H8.96c-1.568 0-2.368 1.072-2.56 2.4s-.992 2.4-2.72 2.4H.8c-.448 0-.8.368-.8.8v1.6c0 .448.352.8.8.8h3.04c1.568 0 2.352-1.072 2.56-2.4.208-1.376.992-2.4 2.56-2.4h6.24c.448 0 .8-.352.8-.8V7.2c0-.432-.352-.8-.8-.8"/>
        <path d="M8.8 11.2h6.4c.448 0 .8.368.8.8v1.6c0 .448-.352.8-.8.8H8.8a.79.79 0 0 1-.8-.8V12c0-.432.352-.8.8-.8"/>
    </g>
</svg>
